<svg xmlns="http://www.w3.org/2000/svg" viewBox="0 0 1200 320" role="img" aria-labelledby="title desc">
  <title id="title">Tradie Smart source archive</title><desc id="desc">A slate and copper banner for Tradie Smart, an attributed Worksuite Laravel source archive with vendor modules, project management domains, and installation evidence.</desc>
  <defs><linearGradient id="bg" x1="0" x2="1"><stop stop-color="#10212b"/><stop offset="1" stop-color="#263c47"/></linearGradient><linearGradient id="c" x1="0" x2="1"><stop stop-color="#f59e0b"/><stop offset="1" stop-color="#fb7185"/></linearGradient></defs><rect width="1200" height="320" rx="24" fill="url(#bg)"/><path d="M0 250L210 180l180 55 245-115 180 68 225-95 160 60" fill="none" stroke="#f59e0b" stroke-opacity=".18" stroke-width="2"/>
  <g font-family="Inter,Segoe UI,Arial,sans-serif"><text x="64" y="64" fill="#fbbf24" font-size="13" font-weight="700" letter-spacing="3">TRADIE SMART � WORKSUITE SOURCE ARCHIVE � ATTRIBUTION RETAINED</text><text x="64" y="126" fill="#f8fafc" font-size="46" font-weight="800">Tradie Smart</text><text x="64" y="158" fill="#cbd5e1" font-size="16">Laravel project-management source with vendor modules and documented installation</text></g>
  <g font-family="Inter,Segoe UI,Arial,sans-serif" text-anchor="middle"><path d="M140 240H1060" stroke="url(#c)" stroke-width="3"/><g fill="#172b35" stroke="#fbbf24" stroke-width="2"><circle cx="160" cy="240" r="25"/><circle cx="390" cy="240" r="25"/><circle cx="620" cy="240" r="25"/><circle cx="850" cy="240" r="25"/><circle cx="1060" cy="240" r="25"/></g><g fill="#f8fafc" font-size="12" font-weight="700"><text x="160" y="245">LARAVEL</text><text x="390" y="245">MODULES</text><text x="620" y="245">DOMAINS</text><text x="850" y="245">INSTALL</text><text x="1060" y="245">TESTS</text></g><g fill="#94a3b8" font-size="11"><text x="160" y="284">PHP + Composer</text><text x="390" y="284">vendor/plugin edges</text><text x="620" y="284">project workflows</text><text x="850" y="284">docs/install.md</text><text x="1060" y="284">suite retained</text></g></g></svg>

